<?xml version="1.0" encoding="UTF-8"?><svg id="Layer_1" xmlns="http://www.w3.org/2000/svg" viewBox="0 0 1229.1 160"><defs><style>.cls-1{fill:#0f0f0f;}</style></defs><path class="cls-1" d="M81.18,64.52l-13.01-2.58c-7.53-1.72-13.03-3.78-16.51-6.18-3.48-2.4-5.11-5.57-4.89-9.52,0-2.44.73-4.61,2.2-6.51,1.47-1.9,3.64-3.39,6.51-4.46,2.87-1.08,6.49-1.61,10.86-1.61,4.66,0,8.57.63,11.72,1.88,3.15,1.25,5.55,3.14,7.2,5.65,1.65,2.51,2.62,5.52,2.9,9.03h39.25c0-9.96-2.49-18.76-7.47-26.4-4.98-7.63-12.06-13.51-21.24-17.63C89.53,2.06,78.78,0,66.45,0s-22.99,2.03-32.42,6.08c-9.43,4.05-16.77,9.82-22.04,17.31-5.27,7.49-7.9,16.07-7.9,25.75-.07,11.76,3.71,21.2,11.34,28.33,7.63,7.13,18.55,12.24,32.74,15.32l15.7,3.55c5.81,1.29,10.45,2.65,13.92,4.09,3.48,1.43,5.98,3.1,7.53,5,1.54,1.9,2.35,4.1,2.42,6.61-.07,2.72-.93,5.13-2.58,7.2-1.65,2.08-4.09,3.73-7.31,4.95-3.23,1.22-7.13,1.83-11.72,1.83-5.52,0-10.25-.84-14.19-2.53-3.94-1.68-7.01-4.19-9.19-7.53-2.19-3.33-3.39-7.37-3.6-12.1H0c.14,12.47,2.94,22.85,8.39,31.13,5.45,8.28,13.12,14.48,23.01,18.6,9.89,4.12,21.65,6.15,35.27,6.08,13.05,0,24.3-1.85,33.76-5.54,9.46-3.69,16.68-9.1,21.67-16.24,4.98-7.13,7.47-15.75,7.47-25.86-.07-12.26-4.03-22.35-11.88-30.27-7.85-7.92-20.02-13.67-36.51-17.26Z"/><polygon class="cls-1" points="139.52 35.16 186.62 35.16 186.62 157.85 226.83 157.85 226.83 35.16 273.82 35.16 273.82 2.15 139.52 2.15 139.52 35.16"/><path class="cls-1" d="M380.76,98.6c0,4.95-1.08,9.35-3.23,13.23-2.15,3.87-5.22,6.92-9.19,9.14-3.98,2.22-8.48,3.33-13.49,3.33s-9.37-1.11-13.28-3.33c-3.91-2.22-6.97-5.27-9.19-9.14-2.22-3.87-3.33-8.28-3.33-13.23V2.15h-40.86v100c0,11.61,2.78,21.76,8.33,30.43,5.55,8.67,13.35,15.36,23.39,20.05,10.04,4.7,21.68,7.04,34.95,7.04s24.87-2.35,35.05-7.04c10.18-4.69,18.05-11.38,23.6-20.05,5.56-8.67,8.33-18.82,8.33-30.43V2.15h-41.08v96.45Z"/><path class="cls-1" d="M540.6,11.4c-11.76-6.16-25.59-9.25-41.51-9.25h-58.6v155.7h59.14c15.77,0,29.48-3.12,41.13-9.36,11.65-6.24,20.61-15.2,26.88-26.88,6.27-11.68,9.41-25.55,9.41-41.61s-3.14-29.96-9.41-41.72c-6.27-11.76-15.29-20.72-27.04-26.88ZM531.46,105.48c-2.87,6.24-7.06,10.72-12.58,13.44-5.52,2.73-12.44,4.09-20.75,4.09h-16.77V36.99h15.81c8.67-.07,15.81,1.24,21.4,3.93,5.59,2.69,9.86,7.19,12.8,13.49,2.94,6.31,4.41,14.84,4.41,25.59s-1.44,19.25-4.3,25.48Z"/><rect class="cls-1" x="594.96" y="2.15" width="40.86" height="155.7"/><path class="cls-1" d="M767.43,9.3c-11.43-6.2-24.28-9.3-38.55-9.3s-27.19,3.1-38.55,9.3c-11.36,6.2-20.32,15.34-26.88,27.42-6.56,12.08-9.84,26.51-9.84,43.28s3.28,31.09,9.84,43.17c6.56,12.08,15.52,21.24,26.88,27.47,11.36,6.24,24.21,9.35,38.55,9.35s27.11-3.12,38.55-9.35c11.43-6.24,20.43-15.38,26.99-27.42,6.56-12.04,9.84-26.45,9.84-43.23s-3.28-31.2-9.84-43.28c-6.56-12.08-15.56-21.22-26.99-27.42ZM758.4,104.09c-2.54,6.52-6.33,11.52-11.34,15-5.02,3.48-11.07,5.22-18.17,5.22s-13.1-1.74-18.01-5.22c-4.91-3.48-8.67-8.48-11.29-15-2.62-6.52-3.93-14.55-3.93-24.09s1.31-17.6,3.93-24.19c2.62-6.59,6.38-11.6,11.29-15,4.91-3.4,10.91-5.11,18.01-5.11s13.15,1.7,18.17,5.11c5.02,3.41,8.8,8.41,11.34,15,2.54,6.6,3.82,14.66,3.82,24.19s-1.27,17.56-3.82,24.09Z"/><path class="cls-1" d="M879.15,124.09l15.81-13.55c11.54-9.75,20.52-18.19,26.94-25.32,6.41-7.13,10.86-13.6,13.33-19.41,2.47-5.81,3.71-11.83,3.71-18.07,0-9.53-2.46-17.9-7.37-25.11-4.91-7.2-11.94-12.78-21.08-16.72-9.14-3.94-19.77-5.91-31.88-5.91s-22.33,2.1-31.29,6.29c-8.96,4.19-15.86,10.27-20.7,18.23-4.84,7.96-7.26,17.28-7.26,27.96h39.03c0-4.37.84-8.14,2.53-11.29,1.68-3.15,4.03-5.52,7.04-7.1,3.01-1.58,6.52-2.4,10.54-2.47,4.01.07,7.56.9,10.65,2.47,3.08,1.58,5.52,3.84,7.31,6.77,1.79,2.94,2.69,6.38,2.69,10.32,0,3.51-.74,6.79-2.2,9.84-1.47,3.05-3.55,5.99-6.24,8.82-2.69,2.83-6.26,6.15-10.7,9.95l-57.85,48.6v29.46h118.6v-32.8h-61.61v-.97Z"/><polygon class="cls-1" points="995.23 2.15 956.95 25.7 956.95 60.75 991.14 40 992 40 992 157.85 1033.08 157.85 1033.08 2.15 995.23 2.15"/><path class="cls-1" d="M1229.1,80c0-10.93-6.03-20.44-14.93-25.43,8.9-4.99,14.93-14.5,14.93-25.43,0-16.09-13.05-29.14-29.14-29.14-10.93,0-20.44,6.03-25.43,14.93-4.99-8.9-14.5-14.93-25.43-14.93s-20.44,6.03-25.43,14.93c-4.99-8.9-14.5-14.93-25.43-14.93-16.09,0-29.14,13.05-29.14,29.14,0,10.93,6.03,20.44,14.93,25.43-8.9,4.99-14.93,14.5-14.93,25.43s6.03,20.44,14.93,25.43c-8.9,4.99-14.93,14.5-14.93,25.43,0,16.09,13.05,29.14,29.14,29.14,10.93,0,20.44-6.03,25.43-14.93,4.99,8.9,14.5,14.93,25.43,14.93s20.44-6.03,25.43-14.93c4.99,8.9,14.5,14.93,25.43,14.93,16.09,0,29.14-13.05,29.14-29.14,0-10.93-6.03-20.44-14.93-25.43,8.9-4.99,14.93-14.5,14.93-25.43ZM1174.53,43.35c2.63,4.7,6.52,8.59,11.22,11.22-4.7,2.63-8.59,6.52-11.22,11.22-2.63-4.7-6.52-8.59-11.22-11.22,4.7-2.63,8.59-6.52,11.22-11.22ZM1123.67,43.35c2.63,4.7,6.52,8.59,11.22,11.22-4.7,2.63-8.59,6.52-11.22,11.22-2.63-4.7-6.52-8.59-11.22-11.22,4.7-2.63,8.59-6.52,11.22-11.22ZM1123.67,116.65c-2.63-4.7-6.52-8.59-11.22-11.22,4.7-2.63,8.59-6.52,11.22-11.22,2.63,4.7,6.52,8.59,11.22,11.22-4.7,2.63-8.59,6.52-11.22,11.22ZM1174.53,116.65c-2.63-4.7-6.52-8.59-11.22-11.22,4.7-2.63,8.59-6.52,11.22-11.22,2.63,4.7,6.52,8.59,11.22,11.22-4.7,2.63-8.59,6.52-11.22,11.22Z"/></svg>