<?xml version="1.0" encoding="UTF-8"?><svg id="Layer_1" xmlns="http://www.w3.org/2000/svg" viewBox="0 0 90 100"><defs><style>.cls-1{fill:#949494;}</style></defs><path class="cls-1" d="M48,1.5c22.33,0,40.5,18.17,40.5,40.5v16c0,22.33-18.17,40.5-40.5,40.5h-6C19.67,98.5,1.5,80.33,1.5,58v-16C1.5,19.67,19.67,1.5,42,1.5h6M48,0h-6C18.8,0,0,18.8,0,42v16c0,23.2,18.8,42,42,42h6c23.2,0,42-18.8,42-42v-16C90,18.8,71.2,0,48,0h0Z"/><path class="cls-1" d="M54.55,43.76c-.05,0-.11,0-.16-.02-.4-.09-.66-.49-.57-.89l2.44-11.23c.04-.29-.05-.62-.27-.87s-.53-.4-.86-.4h-20.26c-.33,0-.65.14-.86.4s-.31.59-.26.91l2.43,11.19c.09.4-.17.8-.57.89-.4.09-.8-.17-.89-.57l-2.44-11.23c-.13-.8.09-1.58.59-2.16s1.23-.92,2-.92h20.26c.77,0,1.5.34,2,.92s.72,1.36.6,2.12l-2.45,11.27c-.08.35-.39.59-.73.59Z"/><path class="cls-1" d="M36.13,71.15c-.48,0-.95-.15-1.36-.45-.74-.54-1.09-1.43-.91-2.33l1.64-8.24c.06-.28-.04-.57-.25-.76l-6.17-5.71c-.67-.62-.91-1.55-.63-2.42.28-.87,1.02-1.48,1.93-1.59l8.35-.99c.28-.03.53-.21.65-.47l3.52-7.63c.38-.83,1.19-1.35,2.11-1.35s1.72.52,2.11,1.35l3.52,7.63c.12.26.37.44.65.47l8.35.99c.91.11,1.65.72,1.93,1.59.28.87.04,1.8-.63,2.42l-6.17,5.71c-.21.19-.3.48-.25.76l1.64,8.24c.18.9-.17,1.79-.91,2.33-.74.54-1.7.59-2.5.15l-7.33-4.1c-.25-.14-.55-.14-.8,0l-7.33,4.1c-.36.2-.75.3-1.14.3ZM45,40.71c-.33,0-.61.18-.74.48l-3.52,7.63c-.34.73-1.04,1.24-1.83,1.33l-8.35.99c-.33.04-.58.25-.68.56-.1.31-.02.63.22.85l6.17,5.71c.59.54.86,1.37.7,2.16l-1.64,8.24c-.06.32.06.63.32.82.27.19.6.21.88.05l7.33-4.1c.7-.39,1.57-.39,2.27,0l7.33,4.1c.29.16.62.14.88-.05.27-.19.39-.5.32-.82l-1.64-8.24c-.16-.79.11-1.61.7-2.15l6.17-5.71c.24-.22.32-.54.22-.85-.1-.31-.36-.52-.68-.56l-8.35-.99c-.79-.09-1.5-.6-1.83-1.33l-3.52-7.63h0c-.14-.3-.42-.48-.74-.48Z"/></svg>