<?xml version="1.0" encoding="UTF-8"?><svg id="Layer_1" xmlns="http://www.w3.org/2000/svg" viewBox="0 0 90 100"><defs><style>.cls-1{fill:#949494;}</style></defs><path class="cls-1" d="M48,1.5c22.33,0,40.5,18.17,40.5,40.5v16c0,22.33-18.17,40.5-40.5,40.5h-6C19.67,98.5,1.5,80.33,1.5,58v-16C1.5,19.67,19.67,1.5,42,1.5h6M48,0h-6C18.8,0,0,18.8,0,42v16c0,23.2,18.8,42,42,42h6c23.2,0,42-18.8,42-42v-16C90,18.8,71.2,0,48,0h0Z"/><path class="cls-1" d="M51.1,59.41c-.17,0-.34-.01-.51-.04l-.15-.02c-2-.28-3.41-2.14-3.13-4.15l1.08-7.73c.28-2.01,2.14-3.41,4.15-3.13l.14.02c.97.14,1.83.64,2.43,1.43.59.78.84,1.75.71,2.72l-1.08,7.73c-.26,1.83-1.84,3.17-3.64,3.17ZM50.79,57.88c1.19.17,2.29-.67,2.46-1.85l1.08-7.73c.08-.58-.07-1.15-.42-1.61-.35-.46-.86-.76-1.44-.84l-.14-.02c-1.19-.17-2.29.67-2.46,1.85l-1.08,7.73c-.17,1.19.67,2.29,1.85,2.46l.14.02Z"/><path class="cls-1" d="M57.55,61.46c-.2,0-.4-.02-.6-.05h0l-.41-.07c-1.92-.33-3.22-2.16-2.89-4.08l1.15-6.73c.33-1.92,2.17-3.22,4.08-2.89l.41.07c.93.16,1.75.67,2.29,1.44.55.77.76,1.71.6,2.64l-1.15,6.73c-.29,1.72-1.79,2.94-3.49,2.94ZM57.21,59.93c1.1.19,2.16-.56,2.35-1.67l1.15-6.73c.09-.54-.03-1.08-.35-1.52-.31-.44-.78-.74-1.32-.83l-.41-.07c-1.1-.19-2.16.56-2.35,1.67l-1.15,6.73c-.19,1.11.56,2.16,1.67,2.35l.41.07Z"/><path class="cls-1" d="M35.63,76.39c-.41,0-.75-.34-.75-.75v-4.85l-6.04-9.92c-1.35-2.21-1.44-5.02-.24-7.31l3.78-7.26c1-1.91,2.95-3.1,5.11-3.1l11.04-.33c.82-.05,1.59.41,2,1.13.4.72.37,1.6-.08,2.29l-.86,1.32c-2.51,3-5.07,3.59-7.55,4.16-.32.07-.64.15-.96.23l-1.44.35-.82,2.72c1.18.79,4.18,2.96,5.86,5.69.22.35.11.81-.24,1.03-.35.22-.81.11-1.03-.24-1.89-3.06-5.82-5.49-5.85-5.51l-.49-.3,1.4-4.64,2.28-.56c.33-.08.66-.16.98-.23,2.44-.56,4.55-1.04,6.68-3.59l.81-1.25c.21-.33.09-.62.03-.74-.06-.11-.27-.37-.64-.36l-11.06.33c-1.62,0-3.06.88-3.8,2.29l-3.78,7.26c-.96,1.83-.88,4.07.19,5.84l6.26,10.28v5.27c0,.41-.34.75-.75.75Z"/><path class="cls-1" d="M54.63,76.39c-.41,0-.75-.34-.75-.75v-4.04l.13-.19c.05-.08,5.22-7.65,6.16-16.77.04-.41.42-.71.82-.67.41.04.71.41.67.82-.91,8.79-5.43,15.97-6.29,17.27v3.58c0,.41-.34.75-.75.75Z"/><path class="cls-1" d="M43.57,44.52l-1.47-.31.32-1.5-3.52-15.6c-.15-.67-.55-1.23-1.13-1.6-.58-.36-1.26-.48-1.93-.33-1.37.31-2.24,1.68-1.93,3.05l3.6,15.91-1.46.33-3.6-15.91c-.49-2.18.88-4.36,3.06-4.85,2.19-.49,4.36.88,4.85,3.06l3.6,15.92-.39,1.82Z"/><path class="cls-1" d="M50.32,44.58l-1.47-.31,3.13-14.64c.14-.67.02-1.35-.35-1.92-.37-.57-.94-.97-1.61-1.11-1.38-.29-2.74.59-3.03,1.96l-3.02,14.14.23,1c.05.21.06.41.08.62l-1.5.1c0-.13-.02-.26-.04-.39l-.3-1.32,3.09-14.46c.23-1.06.85-1.97,1.76-2.56.91-.59,1.99-.79,3.05-.56,1.06.23,1.97.85,2.56,1.76.59.91.79,1.99.56,3.05l-3.13,14.64Z"/></svg>