<?xml version="1.0" encoding="UTF-8"?><svg id="Layer_1" xmlns="http://www.w3.org/2000/svg" viewBox="0 0 90 100"><defs><style>.cls-1{fill:#949494;}</style></defs><path class="cls-1" d="M48,1.5c22.33,0,40.5,18.17,40.5,40.5v16c0,22.33-18.17,40.5-40.5,40.5h-6C19.67,98.5,1.5,80.33,1.5,58v-16C1.5,19.67,19.67,1.5,42,1.5h6M48,0h-6C18.8,0,0,18.8,0,42v16c0,23.2,18.8,42,42,42h6c23.2,0,42-18.8,42-42v-16C90,18.8,71.2,0,48,0h0Z"/><path class="cls-1" d="M58.03,42.99c-.98-.04-1.88.26-2.71.89-.04.03-.08.08-.12.12-.32-.9-.82-1.59-1.51-2.06-1.03-.7-2.22-.73-3.09-.61l1.73-9.74c.27-1.52-.2-3.05-1.23-3.99-1.21-1.1-2.77-1.2-4.41-.27-1.07.61-1.84,1.7-2.1,3l-2.41,12.01v-11.7c0-1.41-.64-2.67-1.71-3.36-1.21-.78-2.64-.73-4.14.15-1.25.74-2.02,2.11-2.02,3.58v18.03c-1.17.27-1.66,1.18-2.14,2.08l-3.5,6.52c-1.19,2.16-.85,4.82.85,6.61l7.54,8c.63.67,1.53,1.06,2.45,1.06h1.21c.41,0,.75-.34.75-.75s-.34-.75-.75-.75h-1.21c-.51,0-1.01-.21-1.36-.59l-7.55-8c-1.24-1.32-1.49-3.27-.62-4.87l3.5-6.53c.33-.61.53-.97.81-1.17v10.63c0,.41.34.75.75.75s.75-.34.75-.75v-30.27c0-.94.49-1.82,1.29-2.29,1.49-.88,2.29-.35,2.56-.18.63.41,1.02,1.21,1.02,2.1v19.26c0,.39.29.71.68.75.39.04.73-.22.81-.6l3.89-19.42c.17-.87.67-1.59,1.37-1.99,1.59-.91,2.39-.17,2.65.07.65.6.95,1.6.77,2.62l-3.36,18.92c-.07.41.2.8.61.87.41.07.8-.2.87-.61l1.35-7.61c.58-.14,1.69-.29,2.53.29.82.56,1.24,1.72,1.26,3.44v4.26c0,.41.34.75.75.75s.75-.34.75-.75v-4.42c0-.58.23-1.09.61-1.38.55-.42,1.12-.62,1.74-.59,1.4.06,2.54,1.34,2.54,2.86v16.96c-.5,4.56-5.71,6.81-7.3,7.39-.39.14-.59.57-.45.96.11.3.4.49.7.49.09,0,.17-.01.26-.05,1.79-.66,7.68-3.21,8.28-8.71v-17.04c0-2.31-1.78-4.27-3.98-4.36Z"/></svg>