<?xml version="1.0" encoding="UTF-8"?><svg id="Layer_1" xmlns="http://www.w3.org/2000/svg" viewBox="0 0 90 100"><defs><style>.cls-1{fill:#949494;}</style></defs><path class="cls-1" d="M48,1.5c22.33,0,40.5,18.17,40.5,40.5v16c0,22.33-18.17,40.5-40.5,40.5h-6C19.67,98.5,1.5,80.33,1.5,58v-16C1.5,19.67,19.67,1.5,42,1.5h6M48,0h-6C18.8,0,0,18.8,0,42v16c0,23.2,18.8,42,42,42h6c23.2,0,42-18.8,42-42v-16C90,18.8,71.2,0,48,0h0Z"/><path class="cls-1" d="M34.57,63.05c-.32-.26-.8-.21-1.05.11l-7.53,9.31c-.26.32-.21.79.11,1.05.14.11.31.17.47.17.22,0,.44-.1.58-.28l7.53-9.31c.26-.32.21-.79-.11-1.05Z"/><path class="cls-1" d="M56.98,52.4c.31-.36.61-.71.92-1.09,10.78-13.32,6.59-23.96,6.41-24.41l-.16-.38-.4-.07c-.48-.09-11.75-1.95-22.53,11.37-.31.38-.6.76-.89,1.13-.01,0-.02,0-.03,0-3.92-1.03-8.14.39-10.75,3.61l-3.85,4.76c-1.52,1.88-1.23,4.64.65,6.16l2.52,2.04c.14.11.31.17.47.17.22,0,.44-.1.58-.28.26-.32.21-.79-.11-1.05l-2.52-2.04c-.6-.48-.97-1.17-1.05-1.94-.08-.77.14-1.52.62-2.12l3.85-4.76c2.11-2.61,5.44-3.82,8.62-3.21-8.52,11.77-5.71,18.09-5.58,18.37l.07.16,5.09,4.12.17.04c.07.02.45.1,1.12.1,2.34,0,8.11-1.03,15.67-9.4,1.26,2.99.77,6.5-1.34,9.11l-3.85,4.76c-1,1.24-2.82,1.43-4.05.43l-2.52-2.04c-.32-.26-.8-.21-1.05.11-.26.32-.21.79.11,1.05l2.52,2.04c.79.64,1.75.98,2.75.98.16,0,.31,0,.47-.02,1.16-.12,2.21-.69,2.95-1.6l3.85-4.76c2.61-3.23,3.11-7.65,1.29-11.26,0-.02-.01-.03-.02-.04ZM39.58,61.52l-4.51-3.65c-.35-1.03-1.99-7.6,7.33-19.11,5.33-6.59,10.78-9.18,14.42-10.2,3.03-.85,5.34-.77,6.25-.69.27.87.83,3.12.64,6.26-.23,3.77-1.63,9.64-6.96,16.23-9.33,11.53-16.1,11.28-17.16,11.16Z"/><path class="cls-1" d="M54.32,38.51c-1.58-1.28-3.91-1.03-5.18.55-1.28,1.58-1.03,3.91.55,5.18.68.55,1.5.82,2.31.82,1.08,0,2.14-.47,2.87-1.37,1.28-1.58,1.03-3.91-.55-5.18ZM53.7,42.75c-.37.45-.89.74-1.47.8-.58.06-1.15-.11-1.6-.47-.94-.76-1.08-2.14-.32-3.08.37-.45.89-.74,1.47-.8.08,0,.16-.01.23-.01.5,0,.98.17,1.37.49.45.37.74.89.8,1.47.06.58-.11,1.15-.47,1.6Z"/><path class="cls-1" d="M26.55,67.79l5.02-6.21c.26-.32.21-.79-.11-1.05-.32-.26-.8-.21-1.05.11l-5.02,6.21c-.26.32-.21.79.11,1.05.14.11.31.17.47.17.22,0,.44-.1.58-.28Z"/><path class="cls-1" d="M36.63,65.68l-5.02,6.21c-.26.32-.21.79.11,1.05.14.11.31.17.47.17.22,0,.44-.1.58-.28l5.02-6.21c.26-.32.21-.79-.11-1.05-.32-.26-.79-.21-1.05.11Z"/></svg>