<?xml version="1.0" encoding="UTF-8"?><svg id="Layer_1" xmlns="http://www.w3.org/2000/svg" viewBox="0 0 90 100"><defs><style>.cls-1{fill:#949494;}</style></defs><path class="cls-1" d="M48,1.5c22.33,0,40.5,18.17,40.5,40.5v16c0,22.33-18.17,40.5-40.5,40.5h-6C19.67,98.5,1.5,80.33,1.5,58v-16C1.5,19.67,19.67,1.5,42,1.5h6M48,0h-6C18.8,0,0,18.8,0,42v16c0,23.2,18.8,42,42,42h6c23.2,0,42-18.8,42-42v-16C90,18.8,71.2,0,48,0h0Z"/><path class="cls-1" d="M51.87,41.33l-2.52,3.11c-.26.32-.21.79.11,1.05.14.11.31.17.47.17.22,0,.44-.1.58-.28l2.52-3.11c.26-.32.21-.79-.11-1.05-.32-.26-.79-.21-1.05.11Z"/><path class="cls-1" d="M34.14,64.44c-1.09-.88-2.52-1.11-3.83-.6-1.31.5-2.22,1.63-2.44,3.01l-.75,4.77c-.06.38.09.77.39,1.01.2.16.44.24.68.24.13,0,.26-.02.39-.07l4.51-1.73c1.31-.5,2.22-1.63,2.44-3.01.22-1.38-.3-2.74-1.39-3.62ZM34.05,67.82c-.13.85-.69,1.54-1.49,1.85l-3.84,1.48.64-4.06c.13-.85.69-1.54,1.49-1.85.28-.11.57-.16.86-.16.53,0,1.05.18,1.49.53.67.54.99,1.37.85,2.22Z"/><path class="cls-1" d="M56.98,53.21c.31-.36.61-.71.92-1.09,10.78-13.32,6.59-23.96,6.41-24.41l-.16-.38-.4-.07c-.48-.09-11.75-1.96-22.53,11.37-.31.38-.6.75-.89,1.13-.01,0-.02,0-.04,0-3.92-1.03-8.14.39-10.75,3.61l-3.85,4.76c-1.52,1.88-1.23,4.64.65,6.16l2.52,2.04c.14.11.31.17.47.17.22,0,.44-.1.58-.28.26-.32.21-.79-.11-1.05l-2.52-2.04c-1.24-1-1.43-2.82-.43-4.05l3.85-4.76c2.11-2.61,5.44-3.82,8.62-3.21-8.52,11.77-5.71,18.09-5.58,18.37l.07.16,5.09,4.12.17.04c.07.02.45.1,1.12.1,2.34,0,8.11-1.03,15.67-9.4,1.26,2.99.77,6.5-1.34,9.11l-3.85,4.76c-1,1.24-2.82,1.43-4.05.43l-2.52-2.04c-.32-.26-.8-.21-1.05.11-.26.32-.21.79.11,1.05l2.52,2.04c.81.65,1.78.97,2.75.97,1.28,0,2.55-.56,3.41-1.62l3.85-4.76c2.61-3.23,3.11-7.65,1.29-11.26,0-.02-.01-.03-.02-.04ZM39.58,62.33l-4.51-3.65c-.35-1.03-1.99-7.6,7.33-19.11,5.33-6.59,10.78-9.18,14.42-10.2,3.03-.85,5.34-.77,6.25-.69.27.87.83,3.12.64,6.26-.23,3.77-1.63,9.64-6.96,16.23-9.33,11.53-16.1,11.28-17.16,11.16Z"/></svg>