<?xml version="1.0" encoding="UTF-8"?><svg id="Layer_1" xmlns="http://www.w3.org/2000/svg" viewBox="0 0 90 100"><defs><style>.cls-1{fill:#949494;}</style></defs><path class="cls-1" d="M48,1.5c22.33,0,40.5,18.17,40.5,40.5v16c0,22.33-18.17,40.5-40.5,40.5h-6C19.67,98.5,1.5,80.33,1.5,58v-16C1.5,19.67,19.67,1.5,42,1.5h6M48,0h-6C18.8,0,0,18.8,0,42v16c0,23.2,18.8,42,42,42h6c23.2,0,42-18.8,42-42v-16C90,18.8,71.2,0,48,0h0Z"/><path class="cls-1" d="M47.51,26.56c-.32-.08-.66.06-.83.35-.17.29-.12.66.11.9,4.06,4.19,6.3,9.7,6.3,15.52,0,12.3-10.01,22.31-22.31,22.31-1.75,0-3.57-.23-5.4-.69-.33-.08-.66.06-.83.35-.17.29-.12.66.11.9,4.53,4.68,10.6,7.25,17.09,7.25,13.13,0,23.81-10.68,23.81-23.81,0-10.94-7.42-20.44-18.05-23.08ZM41.75,71.96c-5.21,0-10.13-1.77-14.11-5.04,1.06.15,2.1.22,3.13.22,13.13,0,23.81-10.68,23.81-23.81,0-5.31-1.75-10.39-4.97-14.54,8.62,3.23,14.44,11.48,14.44,20.86,0,12.3-10.01,22.31-22.31,22.31Z"/><path class="cls-1" d="M32.84,50.08l.63.98.63-.98c1.83-2.85,3.26-4.28,6.11-6.11l.98-.63-.98-.63c-2.85-1.83-4.28-3.26-6.11-6.11l-.63-.98-.63.98c-1.84,2.85-3.26,4.28-6.11,6.11l-.98.63.98.63c2.85,1.83,4.28,3.26,6.11,6.11ZM33.47,38.35c1.47,2.13,2.85,3.51,4.98,4.98-2.13,1.48-3.51,2.85-4.98,4.98-1.48-2.13-2.86-3.51-4.98-4.98,2.13-1.47,3.51-2.85,4.98-4.98Z"/></svg>