<?xml version="1.0" encoding="UTF-8"?><svg id="Layer_1" xmlns="http://www.w3.org/2000/svg" viewBox="0 0 90 100"><defs><style>.cls-1{fill:#949494;}</style></defs><path class="cls-1" d="M48,1.5c22.33,0,40.5,18.17,40.5,40.5v16c0,22.33-18.17,40.5-40.5,40.5h-6C19.67,98.5,1.5,80.33,1.5,58v-16C1.5,19.67,19.67,1.5,42,1.5h6M48,0h-6C18.8,0,0,18.8,0,42v16c0,23.2,18.8,42,42,42h6c23.2,0,42-18.8,42-42v-16C90,18.8,71.2,0,48,0h0Z"/><path class="cls-1" d="M68.53,29.25c-.16-.22-.42-.34-.69-.31l-12.8,1.39c-4.4.48-8.41,2.81-11.03,6.43l-1.33,2.05.22-3.09c.02-.29-.13-.57-.38-.71-.26-.14-.57-.12-.8.05-16.7,12.14-14.3,21.06-14.19,21.44.12.4.53.62.92.51.4-.11.63-.53.52-.92-.02-.08-1.98-7.9,12.33-18.83l-.31,4.36c-.02.34.19.66.51.76.32.11.68-.02.87-.3l2.89-4.46c2.34-3.25,5.97-5.36,9.95-5.79l11.47-1.25-1.41,2.96c-1.32,2.78-3.63,4.92-6.5,6.04l-4.58,1.77c-.33.13-.53.48-.47.83s.37.61.73.62l6.46.09-2.65,3.16c-.71.84-1.63,1.47-2.67,1.81l-11.67,3.79c-.35.11-.56.46-.51.83s.36.63.73.64l9.3.14c-2.81,2.94-10.48,10.22-17.58,10.22-.07,0-.13,0-.2,0-.41,0-.74.33-.75.74,0,.41.32.76.74.76.07,0,.14,0,.21,0,9.55,0,19.41-11.47,19.83-11.96.19-.22.23-.53.11-.8s-.38-.44-.67-.44l-6.46-.1,7.38-2.4c1.31-.43,2.47-1.21,3.36-2.27l3.66-4.37c.19-.22.23-.53.11-.79s-.38-.43-.67-.44l-4.17-.06.97-.38c3.23-1.25,5.83-3.66,7.31-6.79l1.98-4.17c.12-.25.09-.53-.07-.76Z"/><path class="cls-1" d="M35.87,53.48c-.36-.21-.82-.09-1.03.27l-4.02,6.89c-1.71,2.93-2.62,6.28-2.62,9.67,0,.41.34.75.75.75s.75-.34.75-.75c0-3.13.83-6.21,2.41-8.92l4.02-6.89c.21-.36.09-.82-.27-1.03Z"/></svg>